<svg xmlns="http://www.w3.org/2000/svg" width="134" height="135" viewBox="0 0 134 135" fill="none"><path d="M74.3766 5.80527C74.374 5.38421 74.219 5.04098 73.9116 4.77556C73.6075 4.51046 73.193 4.35151 72.6683 4.29872C72.2995 4.2616 71.9774 4.28541 71.7023 4.37015C71.4272 4.45489 71.21 4.58561 71.0509 4.76233C70.8918 4.93905 70.7983 5.14968 70.7705 5.39422C70.75 5.59773 70.7784 5.77886 70.8556 5.9376C70.9359 6.09666 71.0519 6.23682 71.2035 6.35807C71.3555 6.47615 71.5265 6.58009 71.7166 6.66989C71.9067 6.75969 72.0996 6.83852 72.2951 6.90638L73.1879 7.22749C73.5481 7.35047 73.891 7.50222 74.2166 7.68273C74.5453 7.86357 74.8336 8.07889 75.0815 8.32869C75.3326 8.5788 75.5218 8.86927 75.6491 9.20008C75.7764 9.5309 75.8188 9.90778 75.7762 10.3307C75.7186 10.9031 75.5216 11.3924 75.1852 11.7986C74.8491 12.2017 74.3921 12.4978 73.8142 12.6869C73.2397 12.8733 72.5614 12.9271 71.7791 12.8483C71.0191 12.7719 70.3711 12.5878 69.8351 12.2962C69.3023 12.0049 68.9012 11.6176 68.6318 11.1344C68.3656 10.6514 68.2524 10.0843 68.2923 9.43307L70.0333 9.60827C70.0245 9.95108 70.1009 10.2447 70.2627 10.489C70.4244 10.7333 70.6475 10.926 70.932 11.0671C71.2198 11.2085 71.5481 11.2977 71.9169 11.3348C72.3017 11.3736 72.6445 11.3502 72.9454 11.2649C73.2498 11.1767 73.4951 11.0375 73.6813 10.8475C73.8678 10.6542 73.9767 10.4178 74.008 10.1383C74.0304 9.88361 73.9768 9.66621 73.8472 9.48613C73.7179 9.30288 73.5268 9.14232 73.2741 9.00446C73.0249 8.86374 72.7298 8.73126 72.389 8.60703L71.3064 8.20899C70.5226 7.92134 69.9182 7.54411 69.493 7.07732C69.0712 6.60766 68.8956 6.02304 68.966 5.32345C69.0239 4.74788 69.2304 4.25953 69.5856 3.85842C69.9439 3.45762 70.4054 3.16517 70.97 2.98107C71.5349 2.7938 72.1592 2.73456 72.8429 2.80335C73.5361 2.87311 74.1313 3.05507 74.6285 3.34922C75.1292 3.64052 75.5076 4.01427 75.7636 4.47046C76.02 4.92347 76.1253 5.42553 76.0794 5.97662L74.3766 5.80527Z" fill="white"></path><path d="M89.3092 10.0345L87.6034 9.48222C87.6453 9.18673 87.6359 8.90988 87.575 8.65166C87.5152 8.39041 87.4125 8.15226 87.2672 7.93722C87.1218 7.72219 86.9367 7.5363 86.712 7.37956C86.4913 7.22077 86.238 7.0951 85.9522 7.00257C85.4444 6.83817 84.9531 6.82018 84.4782 6.9486C84.0042 7.07398 83.577 7.34551 83.1965 7.76319C82.8171 8.17783 82.5136 8.73634 82.2862 9.43873C82.0549 10.1533 81.9709 10.7913 82.0344 11.3527C82.1019 11.912 82.2899 12.3794 82.5984 12.7547C82.9109 13.128 83.3195 13.3963 83.8243 13.5597C84.104 13.6503 84.3773 13.6985 84.6442 13.7043C84.9151 13.708 85.1715 13.6684 85.4133 13.5854C85.6582 13.5035 85.882 13.3777 86.0847 13.2082C86.2904 13.0396 86.4635 12.8269 86.6037 12.57L88.3066 13.1314C88.099 13.5546 87.8258 13.9264 87.4869 14.2467C87.1511 14.568 86.7647 14.8225 86.3277 15.0102C85.8916 15.1949 85.4185 15.297 84.9083 15.3166C84.399 15.3331 83.8662 15.2513 83.3097 15.0712C82.4888 14.8054 81.8175 14.3781 81.2959 13.7893C80.7744 13.2005 80.4443 12.4873 80.3056 11.6496C80.167 10.8119 80.2601 9.89135 80.585 8.88794C80.9108 7.88149 81.3764 7.08153 81.9818 6.48807C82.5881 5.89156 83.2751 5.50762 84.0427 5.33624C84.8104 5.16486 85.6017 5.21108 86.4166 5.47491C86.9365 5.64325 87.3964 5.87275 87.7961 6.16341C88.1958 6.45407 88.5247 6.79739 88.7829 7.19338C89.042 7.58633 89.2181 8.02295 89.3112 8.50324C89.4083 8.98148 89.4076 9.49189 89.3092 10.0345Z" fill="white"></path><path d="M90.8841 17.6479L95.924 9.222L97.4504 10.135L95.3168 13.702L99.2212 16.0374L101.355 12.4704L102.885 13.3858L97.8453 21.8117L96.3148 20.8963L98.4558 17.3169L94.5514 14.9815L92.4104 18.5609L90.8841 17.6479Z" fill="white"></path><path d="M101.34 24.2945L108.01 17.0903L112.696 21.4287L111.683 22.5227L108.303 19.3927L106.492 21.3485L109.629 24.2538L108.616 25.3478L105.479 22.4425L103.658 24.4089L107.067 27.565L106.054 28.659L101.34 24.2945Z" fill="white"></path><path d="M110.863 34.2396L108.933 31.5298L116.929 25.8333L118.899 28.5978C119.464 29.3917 119.79 30.1878 119.876 30.9859C119.966 31.7848 119.823 32.5502 119.446 33.282C119.068 34.0138 118.464 34.6755 117.634 35.267C116.801 35.8604 115.975 36.2154 115.155 36.3322C114.338 36.4515 113.562 36.335 112.829 35.9826C112.097 35.6328 111.442 35.0518 110.863 34.2396ZM111.218 32.0856L112.066 33.2765C112.463 33.8335 112.896 34.2259 113.364 34.4535C113.835 34.6792 114.34 34.7412 114.88 34.6393C115.422 34.5356 115.999 34.2659 116.61 33.8301C117.222 33.3943 117.663 32.939 117.933 32.4642C118.206 31.9875 118.311 31.4942 118.25 30.9844C118.194 30.4753 117.973 29.9501 117.587 29.4086L116.708 28.1748L111.218 32.0856Z" fill="white"></path><path d="M127.226 43.5063L127.91 45.1483L121.988 47.6131C121.339 47.8833 120.704 47.9675 120.083 47.8658C119.464 47.7669 118.901 47.4994 118.394 47.063C117.89 46.6255 117.484 46.0379 117.177 45.3002C116.869 44.5596 116.737 43.8563 116.782 43.1903C116.83 42.5231 117.037 41.935 117.403 41.426C117.769 40.917 118.277 40.5274 118.926 40.2572L124.848 37.7924L125.531 39.4344L119.747 41.8421C119.369 41.9993 119.067 42.2219 118.841 42.51C118.616 42.801 118.482 43.1334 118.441 43.5073C118.402 43.88 118.469 44.2744 118.642 44.6904C118.815 45.1065 119.048 45.4321 119.34 45.6672C119.636 45.9041 119.965 46.0437 120.329 46.0862C120.693 46.1286 121.064 46.0712 121.442 45.914L127.226 43.5063Z" fill="white"></path><path d="M120.214 53.1393L129.858 51.297L130.192 53.044L122.012 54.6065L122.824 58.8539L121.359 59.1337L120.214 53.1393Z" fill="white"></path><path d="M121.898 62.9719L131.716 62.9386L131.738 69.3242L130.247 69.3293L130.231 64.7222L127.566 64.7313L127.58 69.0075L126.089 69.0126L126.075 64.7363L123.395 64.7454L123.411 69.3908L121.92 69.3959L121.898 62.9719Z" fill="white"></path><path d="M120.382 80.6292L120.958 78.8204L129.263 85.095L128.597 87.187L118.191 87.5036L118.768 85.6948L127 85.5662L127.023 85.4931L120.382 80.6292ZM124.031 81.8575L122.459 86.7906L121.097 86.3568L122.67 81.4237L124.031 81.8575Z" fill="white"></path><path d="M114.411 106.414L115.474 104.971C115.741 105.104 116.006 105.182 116.271 105.206C116.537 105.232 116.796 105.21 117.046 105.14C117.296 105.07 117.53 104.953 117.75 104.789C117.971 104.63 118.17 104.429 118.348 104.187C118.664 103.757 118.837 103.297 118.865 102.806C118.896 102.316 118.773 101.825 118.497 101.332C118.223 100.841 117.789 100.377 117.195 99.9394C116.59 99.4941 116.011 99.2129 115.458 99.0958C114.906 98.9831 114.403 99.0138 113.95 99.1879C113.497 99.3665 113.113 99.6694 112.799 100.097C112.624 100.334 112.492 100.578 112.403 100.829C112.314 101.085 112.27 101.341 112.272 101.596C112.273 101.855 112.321 102.107 112.418 102.352C112.513 102.601 112.66 102.832 112.86 103.047L111.789 104.485C111.453 104.154 111.187 103.777 110.99 103.355C110.791 102.935 110.672 102.488 110.632 102.014C110.594 101.542 110.647 101.06 110.789 100.57C110.935 100.082 111.181 99.6021 111.527 99.131C112.039 98.4361 112.656 97.9342 113.38 97.6253C114.103 97.3165 114.884 97.2286 115.723 97.3618C116.561 97.4949 117.405 97.874 118.255 98.4993C119.107 99.1264 119.719 99.8209 120.09 100.583C120.465 101.346 120.612 102.12 120.532 102.902C120.452 103.684 120.158 104.421 119.651 105.11C119.327 105.551 118.964 105.914 118.562 106.202C118.159 106.489 117.73 106.693 117.273 106.813C116.818 106.934 116.348 106.963 115.863 106.9C115.378 106.841 114.894 106.679 114.411 106.414Z" fill="white"></path><path d="M105.901 106.107L107.326 104.853L111.217 114.507L109.569 115.957L100.484 110.874L101.91 109.619L109.034 113.746L109.092 113.695L105.901 106.107ZM108.397 109.038L104.51 112.459L103.567 111.386L107.453 107.966L108.397 109.038Z" fill="white"></path><path d="M97.9056 112.739L102.826 121.235L101.287 122.127L97.1137 114.921L93.3718 117.088L92.6246 115.798L97.9056 112.739Z" fill="white"></path><path d="M89.1962 117.55L92.4946 126.798L90.8193 127.395L88.0218 119.552L83.9489 121.005L83.448 119.6L89.1962 117.55Z" fill="white"></path><path d="M61.9284 128.923C61.9445 129.344 62.1104 129.682 62.4261 129.937C62.7386 130.193 63.1579 130.338 63.684 130.374C64.0538 130.399 64.3749 130.365 64.6472 130.272C64.9195 130.178 65.1323 130.041 65.2857 129.859C65.4391 129.677 65.5258 129.464 65.5458 129.219C65.5597 129.014 65.5256 128.834 65.4434 128.678C65.358 128.522 65.2376 128.385 65.0821 128.269C64.9265 128.156 64.7522 128.057 64.5594 127.974C64.3665 127.89 64.1712 127.818 63.9736 127.756L63.071 127.464C62.707 127.352 62.3595 127.211 62.0283 127.041C61.694 126.871 61.3989 126.665 61.1432 126.423C60.8842 126.182 60.6858 125.897 60.548 125.571C60.4102 125.244 60.3558 124.869 60.3848 124.445C60.424 123.871 60.6053 123.375 60.9285 122.959C61.2515 122.545 61.6988 122.234 62.2704 122.027C62.8386 121.822 63.5149 121.747 64.2993 121.8C65.0614 121.853 65.7149 122.016 66.26 122.29C66.8018 122.564 67.2151 122.939 67.4998 123.413C67.7813 123.887 67.9126 124.45 67.8936 125.103L66.1479 124.983C66.1457 124.64 66.0599 124.349 65.8904 124.11C65.721 123.871 65.4918 123.686 65.2029 123.554C64.9108 123.422 64.5798 123.343 64.2099 123.318C63.8241 123.291 63.4822 123.326 63.1842 123.42C62.8828 123.518 62.6421 123.665 62.4621 123.861C62.2819 124.06 62.1806 124.3 62.1582 124.58C62.144 124.836 62.2045 125.051 62.3398 125.227C62.4749 125.406 62.671 125.561 62.928 125.69C63.1816 125.823 63.4808 125.946 63.8254 126.059L64.9202 126.422C65.7127 126.685 66.3289 127.043 66.7689 127.495C67.2054 127.951 67.3996 128.53 67.3517 129.232C67.3122 129.809 67.1214 130.303 66.7792 130.716C66.4339 131.128 65.982 131.435 65.4236 131.637C64.865 131.842 64.2429 131.921 63.5573 131.874C62.8622 131.827 62.2615 131.664 61.7551 131.386C61.2454 131.111 60.8553 130.749 60.5848 130.302C60.314 129.857 60.1928 129.359 60.2209 128.806L61.9284 128.923Z" fill="white"></path><path d="M46.8657 125.178L48.5884 125.674C48.5561 125.971 48.5745 126.247 48.6437 126.504C48.712 126.763 48.8223 126.997 48.9745 127.208C49.1268 127.418 49.3177 127.598 49.5474 127.747C49.7731 127.899 50.0303 128.016 50.319 128.099C50.8318 128.247 51.3235 128.249 51.794 128.106C52.2637 127.965 52.6819 127.68 53.0486 127.25C53.4145 126.823 53.6997 126.255 53.9043 125.546C54.1124 124.824 54.1756 124.184 54.094 123.625C54.0085 123.068 53.8055 122.607 53.485 122.242C53.1606 121.879 52.7435 121.624 52.2337 121.477C51.9512 121.395 51.6765 121.356 51.4096 121.359C51.1387 121.364 50.8837 121.412 50.6447 121.502C50.4026 121.592 50.1829 121.725 49.9858 121.901C49.7857 122.076 49.6196 122.295 49.4877 122.556L47.7676 122.05C47.9614 121.62 48.2224 121.24 48.5507 120.909C48.876 120.577 49.254 120.31 49.6847 120.108C50.1145 119.909 50.5841 119.792 51.0935 119.756C51.6019 119.723 52.1371 119.787 52.6991 119.949C53.5282 120.189 54.213 120.594 54.7533 121.166C55.2936 121.737 55.6466 122.439 55.8123 123.272C55.978 124.105 55.9147 125.028 55.6224 126.041C55.3293 127.058 54.8898 127.872 54.304 128.485C53.7173 129.101 53.0431 129.507 52.2814 129.703C51.5196 129.899 50.7273 129.879 49.9043 129.641C49.3792 129.49 48.9121 129.275 48.5032 128.998C48.0943 128.72 47.7545 128.388 47.4837 128C47.212 127.616 47.0219 127.185 46.9133 126.708C46.8007 126.233 46.7849 125.723 46.8657 125.178Z" fill="white"></path><path d="M45.0414 117.617L40.2743 126.2L38.7194 125.337L40.7375 121.703L36.7602 119.494L34.7421 123.128L33.1831 122.262L37.9502 113.679L39.5092 114.545L37.4842 118.191L41.4614 120.4L43.4865 116.754L45.0414 117.617Z" fill="white"></path><path d="M34.379 111.31L27.9416 118.723L23.1201 114.536L24.0976 113.411L27.5762 116.431L29.3239 114.419L26.0951 111.615L27.0726 110.489L30.3014 113.293L32.0585 111.27L28.551 108.224L29.5286 107.098L34.379 111.31Z" fill="white"></path><path d="M24.5464 101.676L26.5625 104.323L18.7523 110.273L16.6955 107.573C16.1048 106.797 15.7538 106.012 15.6423 105.217C15.5264 104.421 15.6453 103.652 15.999 102.908C16.3527 102.165 16.935 101.484 17.7461 100.866C18.5596 100.246 19.374 99.8652 20.1892 99.7223C21.0025 99.5768 21.7814 99.6685 22.526 99.9972C23.2687 100.323 23.9422 100.883 24.5464 101.676ZM24.2606 103.841L23.3745 102.678C22.9601 102.133 22.5152 101.755 22.04 101.543C21.5622 101.332 21.0553 101.286 20.5192 101.405C19.9806 101.526 19.4126 101.815 18.8151 102.27C18.2177 102.725 17.7916 103.194 17.537 103.677C17.2798 104.162 17.1899 104.659 17.2672 105.166C17.34 105.673 17.5779 106.191 17.9807 106.72L18.8987 107.925L24.2606 103.841Z" fill="white"></path><path d="M7.89539 92.9458L7.15916 91.3268L12.9982 88.6716C13.6383 88.3805 14.27 88.2758 14.8935 88.3574C15.5156 88.4361 16.0871 88.6854 16.608 89.105C17.1259 89.5261 17.5503 90.1002 17.881 90.8276C18.2131 91.5578 18.3676 92.2565 18.3444 92.9236C18.3183 93.592 18.1305 94.1865 17.7809 94.7071C17.4313 95.2277 16.9364 95.6335 16.2964 95.9246L10.4573 98.5798L9.72109 96.9607L15.4249 94.367C15.7973 94.1977 16.0919 93.9654 16.3087 93.6702C16.5243 93.372 16.6468 93.0354 16.6764 92.6604C16.703 92.2866 16.6231 91.8946 16.4366 91.4844C16.25 91.0742 16.0071 90.7563 15.708 90.5307C15.4045 90.3036 15.0703 90.1747 14.7053 90.144C14.3403 90.1134 13.9716 90.1828 13.5992 90.3521L7.89539 92.9458Z" fill="white"></path><path d="M14.5905 83.0858L5.01116 85.2383L4.62124 83.503L12.7459 81.6774L11.7979 77.4583L13.2526 77.1315L14.5905 83.0858Z" fill="white"></path><path d="M12.5929 73.3401L2.78088 73.6881L2.55452 67.3065L4.04453 67.2537L4.20784 71.8578L6.87165 71.7633L6.72006 67.4897L8.21007 67.4369L8.36166 71.7105L11.0398 71.6155L10.8752 66.973L12.3652 66.9201L12.5929 73.3401Z" fill="white"></path><path d="M13.5428 55.6169L13.0252 57.4434L4.52141 51.4409L5.12006 49.3285L15.51 48.6752L14.9924 50.5017L6.7684 50.8968L6.74749 50.9706L13.5428 55.6169ZM9.85604 54.5073L11.2677 49.5259L12.6422 49.9155L11.2305 54.8969L9.85604 54.5073Z" fill="white"></path><path d="M18.6801 29.6534L17.664 31.1307C17.3928 31.0062 17.1248 30.9362 16.8599 30.9209C16.5924 30.9037 16.3349 30.9341 16.0873 31.0121C15.8397 31.0901 15.6088 31.2144 15.3944 31.385C15.1793 31.5512 14.9866 31.7581 14.8163 32.0056C14.5138 32.4454 14.3564 32.9112 14.3439 33.403C14.3289 33.893 14.4672 34.38 14.759 34.8638C15.0481 35.3458 15.4968 35.796 16.1051 36.2144C16.7239 36.64 17.3114 36.9025 17.8676 37.0019C18.4229 37.0968 18.9245 37.05 19.3722 36.8614C19.8192 36.6684 20.193 36.3534 20.4936 35.9162C20.6602 35.674 20.7844 35.4258 20.8661 35.1716C20.947 34.9131 20.9822 34.656 20.9717 34.4006C20.963 34.1425 20.9064 33.8921 20.8017 33.6495C20.6989 33.4042 20.5444 33.1777 20.3382 32.9699L21.3621 31.498C21.7085 31.8178 21.9869 32.1857 22.1972 32.6019C22.4093 33.0154 22.5429 33.4584 22.5981 33.9308C22.6507 34.4014 22.6136 34.884 22.4867 35.3786C22.3573 35.8714 22.1268 36.3588 21.7954 36.8407C21.3064 37.5517 20.7053 38.0731 19.9922 38.4049C19.279 38.7368 18.5013 38.8497 17.6588 38.7435C16.8164 38.6373 15.9607 38.2854 15.0917 37.6877C14.2201 37.0882 13.5863 36.4137 13.1902 35.6642C12.7915 34.9129 12.6196 34.1449 12.6744 33.3602C12.7292 32.5756 12.9993 31.8304 13.4847 31.1246C13.7944 30.6744 14.1456 30.2991 14.5382 29.999C14.9308 29.6988 15.3537 29.4815 15.8069 29.3471C16.2575 29.2109 16.7262 29.1668 17.2131 29.2146C17.6991 29.258 18.1882 29.4042 18.6801 29.6534Z" fill="white"></path><path d="M27.1989 29.6846L25.8145 30.9836L21.6171 21.4585L23.2183 19.9562L32.4605 24.7477L31.076 26.0467L23.8234 22.1494L23.7674 22.2019L27.1989 29.6846ZM24.6103 26.8346L28.386 23.2919L29.3636 24.3337L25.5878 27.8764L24.6103 26.8346Z" fill="white"></path><path d="M34.981 22.7992L29.7908 14.465L31.3006 13.5248L35.7026 20.5934L39.3733 18.3074L40.1614 19.573L34.981 22.7992Z" fill="white"></path><path d="M43.5376 17.7092L39.9439 8.57238L41.5991 7.92137L44.6471 15.6707L48.6712 14.088L49.2169 15.4754L43.5376 17.7092Z" fill="white"></path><circle cx="57.6504" cy="8.19275" r="3.375" fill="white"></circle><circle cx="77.1504" cy="126.693" r="3.375" fill="white"></circle></svg>