<svg xmlns="http://www.w3.org/2000/svg" width="31" height="30" viewBox="0 0 31 30" fill="none"><path d="M27.3019 14.3988L23.7808 13.4251C22.1952 12.9924 20.7508 12.1733 19.5859 11.0459C18.421 9.91858 17.5745 8.52079 17.1275 6.9863L16.1213 3.5788C16.0707 3.45959 15.9846 3.35762 15.8739 3.28586C15.7633 3.2141 15.6331 3.17578 15.5 3.17578C15.3668 3.17578 15.2366 3.2141 15.126 3.28586C15.0154 3.35762 14.9293 3.45959 14.8787 3.5788L13.8725 6.9863C13.4254 8.52079 12.579 9.91858 11.414 11.0459C10.2491 12.1733 8.80473 12.9924 7.21909 13.4251L3.698 14.3988C3.56281 14.4359 3.44382 14.5147 3.35909 14.6232C3.27436 14.7318 3.22852 14.864 3.22852 15.0001C3.22852 15.1361 3.27436 15.2684 3.35909 15.3769C3.44382 15.4854 3.56281 15.5642 3.698 15.6013L7.21909 16.5751C8.80473 17.0077 10.2491 17.8268 11.414 18.9542C12.579 20.0815 13.4254 21.4793 13.8725 23.0138L14.8787 26.4213C14.917 26.5521 14.9985 26.6673 15.1106 26.7493C15.2227 26.8313 15.3594 26.8756 15.5 26.8756C15.6405 26.8756 15.7772 26.8313 15.8893 26.7493C16.0015 26.6673 16.0829 26.5521 16.1213 26.4213L17.1275 23.0138C17.5745 21.4793 18.421 20.0815 19.5859 18.9542C20.7508 17.8268 22.1952 17.0077 23.7808 16.5751L27.3019 15.6013C27.4371 15.5642 27.5561 15.4854 27.6408 15.3769C27.7256 15.2684 27.7714 15.1361 27.7714 15.0001C27.7714 14.864 27.7256 14.7318 27.6408 14.6232C27.5561 14.5147 27.4371 14.4359 27.3019 14.3988Z" fill="#80869B"></path></svg>