<svg xmlns="http://www.w3.org/2000/svg" width="70" height="70" viewBox="0 0 70 70" fill="none"><g clip-path="url(#clip0_2540_2773)"><path fill-rule="evenodd" clip-rule="evenodd" d="M23.979 42.82H38.8057C39.4158 42.82 39.911 42.3249 39.911 41.7148C39.911 41.1048 39.4158 40.6096 38.8057 40.6096H23.979C23.3689 40.6096 22.8738 41.1048 22.8738 41.7148C22.8738 42.3249 23.3688 42.82 23.979 42.82Z" fill="white"></path><path fill-rule="evenodd" clip-rule="evenodd" d="M33.3096 41.7148V68.3244C33.3096 68.9345 33.8047 69.4296 34.4148 69.4296C35.0241 69.4296 35.52 68.9344 35.52 68.3244V41.7148C35.52 41.1047 35.0241 40.6096 34.4148 40.6096C33.8047 40.6096 33.3096 41.1048 33.3096 41.7148Z" fill="white"></path><path fill-rule="evenodd" clip-rule="evenodd" d="M9.64001 0.570312C5.33835 0.570312 1.84497 4.0637 1.84497 8.36604C1.84497 12.6684 5.33835 16.1611 9.64001 16.1611C13.9425 16.1611 17.4359 12.6685 17.4359 8.36604C17.4359 4.06358 13.9425 0.570312 9.64001 0.570312ZM9.64001 2.78084C12.723 2.78084 15.2253 5.28321 15.2253 8.36604C15.2253 11.4483 12.723 13.9506 9.64001 13.9506C6.55776 13.9506 4.0555 11.4483 4.0555 8.36604C4.0555 5.2831 6.55787 2.78084 9.64001 2.78084Z" fill="white"></path><path fill-rule="evenodd" clip-rule="evenodd" d="M60.3598 0.570312C56.0573 0.570312 52.564 4.0637 52.564 8.36604C52.564 12.6684 56.0573 16.1611 60.3598 16.1611C64.6615 16.1611 68.1548 12.6685 68.1548 8.36604C68.1548 4.06358 64.6615 0.570312 60.3598 0.570312ZM60.3598 2.78084C63.4421 2.78084 65.9443 5.28321 65.9443 8.36604C65.9443 11.4483 63.4421 13.9506 60.3598 13.9506C57.2769 13.9506 54.7745 11.4483 54.7745 8.36604C54.7745 5.2831 57.2769 2.78084 60.3598 2.78084Z" fill="white"></path><path fill-rule="evenodd" clip-rule="evenodd" d="M15.7324 32.0208C15.9151 32.3893 16.2939 32.6346 16.722 32.6346L17.1324 32.5549L27.3096 28.4869C28.8761 27.8613 30.6556 28.624 31.282 30.1905C31.9075 31.7563 31.1442 33.5358 29.5784 34.162L16.1377 39.5343C14.8533 40.0478 13.3989 39.6323 12.5758 38.5536C12.2884 38.177 11.7925 38.0253 11.3431 38.177C10.8944 38.3288 10.5923 38.7503 10.5923 39.2241V44.7747C10.5923 45.3362 11.013 45.8078 11.5701 45.8727L20.5161 46.9057C22.6301 47.1496 24.2261 48.9401 24.2261 51.0689V68.3243C24.2261 68.9345 24.7213 69.4295 25.3313 69.4295C25.9415 69.4295 26.4365 68.9344 26.4365 68.3243V51.0689C26.4365 47.8172 23.9991 45.0828 20.7695 44.71L12.8027 43.7897V41.4819C14.0774 42.0677 15.5747 42.1399 16.9578 41.5873L30.3993 36.215C33.0976 35.1356 34.4129 32.0688 33.3342 29.3697C32.2554 26.6706 29.1887 25.3554 26.4897 26.4341L17.1789 30.1559L11.8302 21.4015C11.0749 20.1651 9.84363 19.2949 8.4267 18.995C8.38324 18.9862 8.33978 18.9766 8.29551 18.9677C6.81073 18.6538 5.26261 18.9957 4.0483 19.9057C2.83398 20.8164 2.07136 22.2061 1.95636 23.7195C1.30644 32.2713 0.00300516 49.4103 0.00300516 49.4103C0.000693499 49.4383 0 49.4663 0 49.4943C0 52.7423 2.43233 55.4745 5.65744 55.8518L13.6337 56.8818V68.3242C13.6337 68.9344 14.1289 69.4294 14.7389 69.4294C15.349 69.4294 15.8441 68.9343 15.8441 68.3242V55.91C15.8441 55.3537 15.4315 54.885 14.8803 54.8136L5.92028 53.6575C3.82106 53.4151 2.23306 51.6481 2.21029 49.5393C2.21029 49.5334 4.15995 23.8869 4.15995 23.8869C4.22699 23.0093 4.66909 22.2025 5.37357 21.6749C6.07874 21.1465 6.97625 20.9483 7.83827 21.1304L7.96864 21.1576C8.79102 21.3316 9.50497 21.837 9.94338 22.554C11.6153 25.2907 15.004 30.8376 15.665 31.92C15.6874 31.9553 15.7095 31.9892 15.7324 32.0208Z" fill="white"></path><path fill-rule="evenodd" clip-rule="evenodd" d="M6.95728 33.6287L10.5089 39.4431C11.8477 41.6345 14.5726 42.5408 16.9578 41.5873C17.5244 41.3611 17.8007 40.7171 17.5738 40.1512C17.3476 39.5846 16.7036 39.3082 16.1377 39.5344C14.7539 40.0879 13.1726 39.5624 12.3952 38.2907L8.84371 32.4762C8.5254 31.956 7.8445 31.7918 7.32437 32.1093C6.80402 32.4277 6.63897 33.1085 6.95728 33.6287Z" fill="white"></path><path fill-rule="evenodd" clip-rule="evenodd" d="M51.7985 31.8308L41.0965 33.3443C38.2184 33.751 36.2128 36.4183 36.6195 39.2964C37.0263 42.1738 39.6936 44.1802 42.5717 43.7734L55.734 41.9114C56.2461 41.8392 56.7383 41.6933 57.1974 41.4818V43.7895L49.2306 44.7098C46.001 45.0827 43.5635 47.817 43.5635 51.0687V68.3241C43.5635 68.9343 44.0587 69.4293 44.6687 69.4293C45.2788 69.4293 45.7739 68.9341 45.7739 68.3241V51.0687C45.7739 48.94 47.3699 47.1494 49.4839 46.9055L58.4269 45.8724H58.4247C58.9782 45.812 59.4077 45.3434 59.4077 44.7745V39.2232C59.4077 38.7494 59.1055 38.3287 58.6568 38.1769C58.2081 38.0243 57.7122 38.1762 57.4241 38.5527C56.9401 39.1864 56.2231 39.61 55.4243 39.7228L42.2621 41.5841C40.5917 41.8205 39.0442 40.6564 38.8084 38.986C38.572 37.3163 39.7361 35.769 41.4058 35.5324L52.6213 33.9467L52.4696 33.957L53.4127 33.4279L59.3929 23.639C60.1577 22.3878 61.5584 21.6694 63.0211 21.7799C63.0418 21.7814 63.0617 21.7828 63.0823 21.7843C65.0526 21.9332 66.6021 23.5292 66.6921 25.5024L67.7892 49.5176C67.7774 51.6353 66.1858 53.4133 64.0792 53.6572L55.3056 54.6704C54.7537 54.7337 54.3352 55.1972 54.3278 55.7528L54.1553 68.3086C54.1472 68.9188 54.6357 69.4205 55.2452 69.4293C55.8553 69.4374 56.3571 68.9489 56.3659 68.3388L56.5243 56.7541L64.3327 55.8529C67.5623 55.48 69.9997 52.7449 69.9997 49.494C69.9997 49.477 69.999 49.4601 69.9982 49.4431C69.9982 49.4431 69.2657 33.4066 68.9003 25.4015C68.7588 22.3112 66.3332 19.8126 63.2487 19.5804C63.228 19.5789 63.2075 19.5767 63.1876 19.5752C60.8975 19.4027 58.7039 20.5271 57.5066 22.4865L51.7985 31.8308Z" fill="white"></path><path fill-rule="evenodd" clip-rule="evenodd" d="M45.4404 3.88604C45.4404 3.00703 45.0911 2.16328 44.4693 1.54144C43.8474 0.919489 43.0045 0.570312 42.1247 0.570312H26.7048C24.873 0.570312 23.3889 2.05509 23.3889 3.88604V17.9332C23.3889 18.6553 23.8103 19.3111 24.4677 19.6102C25.1249 19.9093 25.8964 19.7966 26.4409 19.322C27.5041 18.3959 29.0022 17.0901 29.8369 16.3622C30.0389 16.1869 30.2967 16.0903 30.5635 16.0903H42.1246C43.0044 16.0903 43.8474 15.7411 44.4692 15.1192C45.091 14.4973 45.4403 13.6536 45.4403 12.7746V3.88604H45.4404ZM25.5994 17.1234V3.88604C25.5994 3.276 26.0939 2.78084 26.7046 2.78084H42.1246C42.4178 2.78084 42.6993 2.89723 42.9064 3.10505C43.1134 3.31206 43.2299 3.59281 43.2299 3.88604V12.7746C43.2299 13.0678 43.1135 13.3486 42.9064 13.5556C42.6994 13.7634 42.4178 13.8798 42.1246 13.8798H30.5636C29.7626 13.8798 28.989 14.1694 28.3848 14.6955L25.5994 17.1234Z" fill="white"></path><path fill-rule="evenodd" clip-rule="evenodd" d="M29.4907 7.41695H39.5059C40.116 7.41695 40.6111 6.9218 40.6111 6.31175C40.6111 5.7017 40.1159 5.20654 39.5059 5.20654H29.4907C28.8807 5.20654 28.3855 5.7017 28.3855 6.31175C28.3855 6.9218 28.8805 7.41695 29.4907 7.41695Z" fill="white"></path><path fill-rule="evenodd" clip-rule="evenodd" d="M29.4907 11.4477H34.415C35.0244 11.4477 35.5202 10.9526 35.5202 10.3425C35.5202 9.73235 35.0244 9.2373 34.415 9.2373H29.4907C28.8807 9.2373 28.3855 9.73246 28.3855 10.3425C28.3854 10.9526 28.8805 11.4477 29.4907 11.4477Z" fill="white"></path><path fill-rule="evenodd" clip-rule="evenodd" d="M52.4131 42.3818L55.7341 41.9117C57.2925 41.6914 58.6704 40.7858 59.4912 39.4433L63.0427 33.6289C63.3611 33.1087 63.196 32.4279 62.6758 32.1096C62.1555 31.7919 61.4747 31.9563 61.1564 32.4765L57.6049 38.291C57.1289 39.0697 56.3286 39.5952 55.4245 39.7234L52.1036 40.1928C51.4993 40.2783 51.0779 40.8383 51.1633 41.4424C51.2489 42.0458 51.8089 42.4672 52.4131 42.3818Z" fill="white"></path></g><defs><clipPath id="clip0_2540_2773"><rect width="70" height="70" fill="white"></rect></clipPath></defs></svg>